<svg id="visual" viewBox="0 0 900 600" width="900" height="600" xmlns="http://www.w3.org/2000/svg" xmlns:xlink="http://www.w3.org/1999/xlink" version="1.1"><path d="M0 503L10.7 511.5C21.3 520 42.7 537 64.2 534.7C85.7 532.3 107.3 510.7 128.8 502C150.3 493.3 171.7 497.7 193 506.3C214.3 515 235.7 528 257 535.7C278.3 543.3 299.7 545.7 321.2 543.2C342.7 540.7 364.3 533.3 385.8 527.5C407.3 521.7 428.7 517.3 450 516C471.3 514.7 492.7 516.3 514.2 523C535.7 529.7 557.3 541.3 578.8 542.8C600.3 544.3 621.7 535.7 643 529.7C664.3 523.7 685.7 520.3 707 516.3C728.3 512.3 749.7 507.7 771.2 507.3C792.7 507 814.3 511 835.8 514.2C857.3 517.3 878.7 519.7 889.3 520.8L900 522L900 601L889.3 601C878.7 601 857.3 601 835.8 601C814.3 601 792.7 601 771.2 601C749.7 601 728.3 601 707 601C685.7 601 664.3 601 643 601C621.7 601 600.3 601 578.8 601C557.3 601 535.7 601 514.2 601C492.7 601 471.3 601 450 601C428.7 601 407.3 601 385.8 601C364.3 601 342.7 601 321.2 601C299.7 601 278.3 601 257 601C235.7 601 214.3 601 193 601C171.7 601 150.3 601 128.8 601C107.3 601 85.7 601 64.2 601C42.7 601 21.3 601 10.7 601L0 601Z" fill="#ff8c32"></path><path d="M0 512L10.7 515C21.3 518 42.7 524 64.2 533C85.7 542 107.3 554 128.8 556.8C150.3 559.7 171.7 553.3 193 549.5C214.3 545.7 235.7 544.3 257 541.2C278.3 538 299.7 533 321.2 536.5C342.7 540 364.3 552 385.8 555C407.3 558 428.7 552 450 550.5C471.3 549 492.7 552 514.2 550C535.7 548 557.3 541 578.8 538C600.3 535 621.7 536 643 535C664.3 534 685.7 531 707 530C728.3 529 749.7 530 771.2 529.2C792.7 528.3 814.3 525.7 835.8 523.7C857.3 521.7 878.7 520.3 889.3 519.7L900 519L900 601L889.3 601C878.7 601 857.3 601 835.8 601C814.3 601 792.7 601 771.2 601C749.7 601 728.3 601 707 601C685.7 601 664.3 601 643 601C621.7 601 600.3 601 578.8 601C557.3 601 535.7 601 514.2 601C492.7 601 471.3 601 450 601C428.7 601 407.3 601 385.8 601C364.3 601 342.7 601 321.2 601C299.7 601 278.3 601 257 601C235.7 601 214.3 601 193 601C171.7 601 150.3 601 128.8 601C107.3 601 85.7 601 64.2 601C42.7 601 21.3 601 10.7 601L0 601Z" fill="#d55266"></path><path d="M0 535L10.7 541.3C21.3 547.7 42.7 560.3 64.2 561.7C85.7 563 107.3 553 128.8 554C150.3 555 171.7 567 193 572.5C214.3 578 235.7 577 257 573.2C278.3 569.3 299.7 562.7 321.2 560.5C342.7 558.3 364.3 560.7 385.8 564.3C407.3 568 428.7 573 450 571.7C471.3 570.3 492.7 562.7 514.2 561.2C535.7 559.7 557.3 564.3 578.8 565.3C600.3 566.3 621.7 563.7 643 559.8C664.3 556 685.7 551 707 549.8C728.3 548.7 749.7 551.3 771.2 553.2C792.7 555 814.3 556 835.8 560C857.3 564 878.7 571 889.3 574.5L900 578L900 601L889.3 601C878.7 601 857.3 601 835.8 601C814.3 601 792.7 601 771.2 601C749.7 601 728.3 601 707 601C685.7 601 664.3 601 643 601C621.7 601 600.3 601 578.8 601C557.3 601 535.7 601 514.2 601C492.7 601 471.3 601 450 601C428.7 601 407.3 601 385.8 601C364.3 601 342.7 601 321.2 601C299.7 601 278.3 601 257 601C235.7 601 214.3 601 193 601C171.7 601 150.3 601 128.8 601C107.3 601 85.7 601 64.2 601C42.7 601 21.3 601 10.7 601L0 601Z" fill="#7d4071"></path><path d="M0 566L10.7 569.5C21.3 573 42.7 580 64.2 579.3C85.7 578.7 107.3 570.3 128.8 568.8C150.3 567.3 171.7 572.7 193 577.7C214.3 582.7 235.7 587.3 257 588.2C278.3 589 299.7 586 321.2 583.7C342.7 581.3 364.3 579.7 385.8 579C407.3 578.3 428.7 578.7 450 577.8C471.3 577 492.7 575 514.2 577.3C535.7 579.7 557.3 586.3 578.8 589.5C600.3 592.7 621.7 592.3 643 586.5C664.3 580.7 685.7 569.3 707 564.3C728.3 559.3 749.7 560.7 771.2 561.7C792.7 562.7 814.3 563.3 835.8 565.8C857.3 568.3 878.7 572.7 889.3 574.8L900 577L900 601L889.3 601C878.7 601 857.3 601 835.8 601C814.3 601 792.7 601 771.2 601C749.7 601 728.3 601 707 601C685.7 601 664.3 601 643 601C621.7 601 600.3 601 578.8 601C557.3 601 535.7 601 514.2 601C492.7 601 471.3 601 450 601C428.7 601 407.3 601 385.8 601C364.3 601 342.7 601 321.2 601C299.7 601 278.3 601 257 601C235.7 601 214.3 601 193 601C171.7 601 150.3 601 128.8 601C107.3 601 85.7 601 64.2 601C42.7 601 21.3 601 10.7 601L0 601Z" fill="#2b2e4a"></path></svg>